<?xml version="1.0" encoding="utf-8"?>
<!-- Generator: Adobe Illustrator 21.1.0, SVG Export Plug-In . SVG Version: 6.00 Build 0)  -->
<svg version="1.1" id="Layer_1" xmlns="http://www.w3.org/2000/svg" xmlns:xlink="http://www.w3.org/1999/xlink" x="0px" y="0px"
	 viewBox="0 0 163.2 43" style="enable-background: new 0 0 163.2 43" xml:space="preserve">
<style type="text/css">
	.st0{fill:rgb(85, 85, 85);}
</style>
<g>
	<polygon class="st0" points="95.1,12 104.5,8.5 95.1,4.9 95.1,0 111.2,6.5 111.2,10.5 95.1,17"/>
	<path class="st0" d="M 6.2 43 C 2.8 43 0 41.3 0 37.5 v -0.2 c 0 -4.6 4 -6.2 8.9 -6.2 h 2.3 v -0.9 c 0 -1.9 -0.8 -3 -2.8 -3 c -1.8 0 -2.7 1 -2.8 2.4 h -5 c 0.4 -4.2 3.7 -6.2 8.1 -6.2 c 4.5 0 7.8 1.9 7.8 6.6 v 12.6 h -5.1 v -2.2 C 10.4 41.8 8.7 43 6.2 43 z M 11.2 36.4 v -1.8 H 9.1 c -2.6 0 -3.9 0.7 -3.9 2.4 v 0.2 c 0 1.3 0.8 2.2 2.6 2.2 C 9.6 39.3 11.2 38.3 11.2 36.4 z M 28.4 43 c -5.2 0 -9 -3.2 -9 -9.6 v -0.3 c 0 -6.4 4 -9.8 9 -9.8 c 4.3 0 7.8 2.2 8.2 7.1 h -5 c -0.3 -1.8 -1.3 -3 -3.1 -3 c -2.2 0 -3.8 1.8 -3.8 5.5 v 0.6 c 0 3.8 1.4 5.5 3.8 5.5 c 1.8 0 3.1 -1.3 3.4 -3.4 h 4.8 C 36.4 40 33.5 43 28.4 43 z M 48 43 c -5.2 0 -9 -3.2 -9 -9.6 v -0.3 c 0 -6.4 4 -9.8 9 -9.8 c 4.3 0 7.8 2.2 8.2 7.1 h -5 c -0.3 -1.8 -1.3 -3 -3.1 -3 c -2.2 0 -3.8 1.8 -3.8 5.5 v 0.6 c 0 3.8 1.4 5.5 3.8 5.5 c 1.8 0 3.1 -1.3 3.4 -3.4 h 4.8 C 56 40 53.1 43 48 43 z M 67.7 43 c -5.4 0 -9.1 -3.2 -9.1 -9.5 v -0.4 c 0 -6.3 3.9 -9.8 9 -9.8 c 4.7 0 8.6 2.6 8.6 8.9 v 2.3 H 63.9 c 0.2 3.4 1.7 4.7 3.9 4.7 c 2 0 3.1 -1.1 3.5 -2.4 h 4.9 C 75.6 40.3 72.6 43 67.7 43 z M 64 31 H 71 c -0.1 -2.8 -1.4 -4 -3.5 -4 C 65.9 27.1 64.4 28 64 31 z M 79.4 23.8 h 5.3 v 2.8 c 0.9 -1.8 2.8 -3.2 5.7 -3.2 c 3.4 0 5.7 2.1 5.7 6.6 v 12.6 h -5.3 V 30.8 c 0 -2.2 -0.9 -3.2 -2.8 -3.2 c -1.8 0 -3.3 1.1 -3.3 3.5 v 11.5 h -5.3 V 23.8 z M 105.8 18.1 v 5.7 h 3.6 v 3.9 h -3.6 v 8.9 c 0 1.4 0.6 2.1 1.9 2.1 c 0.8 0 1.3 -0.1 1.8 -0.3 v 4.1 c -0.6 0.2 -1.7 0.4 -3 0.4 c -4.1 0 -6 -1.9 -6 -5.7 v -9.5 h -2.2 v -3.9 h 2.2 v -3.5 L 105.8 18.1 z M 129.2 42.6 H 124 v -2.8 c -0.9 1.8 -2.7 3.2 -5.5 3.2 c -3.4 0 -5.9 -2.1 -5.9 -6.5 V 23.8 h 5.3 v 12 c 0 2.2 0.9 3.2 2.7 3.2 c 1.8 0 3.3 -1.2 3.3 -3.5 V 23.8 h 5.3 V 42.6 z M 133.1 23.8 h 5.3 v 3.5 c 1.1 -2.5 2.9 -3.7 5.7 -3.7 v 5.2 c -3.6 0 -5.7 1.1 -5.7 4.2 v 9.7 h -5.3 V 23.8 z M 154.8 43 c -5.4 0 -9.1 -3.2 -9.1 -9.5 v -0.4 c 0 -6.3 3.9 -9.8 9 -9.8 c 4.7 0 8.6 2.6 8.6 8.9 v 2.3 h -12.2 c 0.2 3.4 1.7 4.7 3.9 4.7 c 2 0 3.1 -1.1 3.5 -2.4 h 4.9 C 162.6 40.3 159.7 43 154.8 43 z M 151 31 h 7.1 c -0.1 -2.8 -1.4 -4 -3.5 -4 C 153 27.1 151.5 28 151 31 z"/>

</g>
</svg>
