<?xml version="1.0" encoding="utf-8"?>
<svg viewBox="0 0 204 250" xmlns="http://www.w3.org/2000/svg">
  <g id="surface1" style="" transform="matrix(0.2396680116653442, 0, 0, 0.22732199728488922, 77.68752404581792, 93.54233690414333)">
    <path style=" stroke:none;fill-rule:nonzero;fill:rgb(33.333333%,33.333333%,33.333333%);fill-opacity:1;" d="M 197.507812 85.226562 C 196.054688 86.351562 170.394531 100.773438 170.394531 132.851562 C 170.394531 169.949219 203.046875 183.074219 204.023438 183.398438 C 203.875 184.199219 198.835938 201.375 186.808594 218.875 C 176.082031 234.273438 164.878906 249.648438 147.835938 249.648438 C 130.796875 249.648438 126.410156 239.773438 106.738281 239.773438 C 87.566406 239.773438 80.746094 249.976562 65.160156 249.976562 C 49.570312 249.976562 38.695312 235.726562 26.1875 218.226562 C 11.703125 197.675781 0 165.75 0 135.449219 C 0 86.851562 31.675781 61.074219 62.855469 61.074219 C 79.417969 61.074219 93.226562 71.925781 103.628906 71.925781 C 113.527344 71.925781 128.964844 60.425781 147.8125 60.425781 C 154.953125 60.425781 180.617188 61.074219 197.507812 85.226562 Z M 138.867188 39.851562 C 146.660156 30.625 152.171875 17.824219 152.171875 5.023438 C 152.171875 3.25 152.023438 1.449219 151.695312 0 C 139.015625 0.476562 123.929688 8.425781 114.832031 18.949219 C 107.6875 27.050781 101.023438 39.851562 101.023438 52.824219 C 101.023438 54.773438 101.347656 56.726562 101.5 57.351562 C 102.300781 57.5 103.605469 57.675781 104.90625 57.675781 C 116.285156 57.675781 130.59375 50.074219 138.867188 39.851562 Z M 138.867188 39.851562 "/>
  </g>
</svg>