<!-- Generator: Adobe Illustrator 19.0.0, SVG Export Plug-In . SVG Version: 6.00 Build 0)  --><svg version="1.1" id="layer" xmlns="http://www.w3.org/2000/svg" xmlns:xlink="http://www.w3.org/1999/xlink" x="0px" y="0px" viewBox="-153 -46 652 652" style="enable-background:new -153 -46 652 652;" xml:space="preserve" height="924" width="924"><style type="text/css">	.st0{fill:rgb(85, 85, 85);}</style><path class="st0" d="M-64.9,267h24.1c-1.1-6-5.1-9.5-10.7-9.5C-57.9,257.6-62.7,261-64.9,267 M-49.4,303.5c-16.5,0-28.5-12-28.5-28.5  c0-16.8,11.1-28.6,27-28.6c16.2,0,23.4,12.8,23.4,25.5c0,1.2-0.2,3.4-0.2,3.7L-28,278h-37.3c1.2,8.5,7.4,13.9,16,13.9  c7.2,0,12.2-4.7,12.7-5.2l2.4-2.5l6.4,9.9l-1.7,1.6C-29.5,295.9-37.2,303.5-49.4,303.5 M-119.6,257.7h13.1c5.3,0,8.8-3.6,8.8-9.2  s-3.3-8.9-8.9-8.9h-13V257.7L-119.6,257.7z M-119.6,290.5h14c6.6,0,10.5-4,10.5-10.6c0-6.5-4.2-10.8-10.7-10.8h-13.9V290.5  L-119.6,290.5z M-122.6,302.2h-9.4V228h1.3l0.8-0.1h23.6c12.8,0,21.4,8.1,21.4,20.1c0,5.9-2.1,11-6,14.6c5.6,3.6,8.8,10,8.8,17.6  c0,13.2-9.4,22-23.3,22L-122.6,302.2C-122.6,302.2-122.6,302.2-122.6,302.2z M345.7,302.3h-8.2c-5.7,0-8.8-3-8.8-8.8v-41.9l12.3-7  v46.3h4.7V302.3L345.7,302.3z M335.2,242.3c-4.1,0-7.5-3.4-7.5-7.5s3.4-7.5,7.5-7.5c4.1,0,7.5,3.4,7.5,7.5S339.3,242.3,335.2,242.3   M89.9,302.3h-8.2c-5.7,0-8.8-3-8.8-8.8v-41.8l12.3-7v46.3h4.7L89.9,302.3z M79.4,242.3c-4.1,0-7.5-3.4-7.5-7.5s3.4-7.5,7.5-7.5  s7.5,3.4,7.5,7.5S83.5,242.3,79.4,242.3 M48.6,302.3H36.3v-54.8h12.1v8.2c3.1-5.2,7.8-8.6,12.7-8.6c1.5,0,3,0.3,3.3,0.4l2.1,0.5  v12.1l-3.3-0.5c-0.2,0-1.1-0.2-2-0.2c-5.2,0-9.6,4.1-11.6,10.7c-0.8,2.6-1.2,5.6-1.2,8.8L48.6,302.3L48.6,302.3z M406,302.3h-8.2  c-5.7,0-8.8-3-8.8-8.8v-23.6c0-8.9-1.9-11.7-7.8-11.7c-7,0-13.3,4.9-15.2,11.8c-0.5,1.6-0.7,3.6-0.7,5.9v26.4h-12.3v-54.7l2.8-0.1  h9.5v6.6c3.3-3.8,8.7-7.7,16.7-7.7c13,0,19.3,7.2,19.3,21.9v22.7h4.7L406,302.3z M150.7,302.3h-8.2c-5.7,0-8.8-3-8.8-8.8v-23.6  c0-8.9-1.9-11.7-7.8-11.7c-7,0-13.3,4.9-15.2,11.8c-0.5,1.6-0.7,3.6-0.7,5.9v26.4H97.8v-54.7l2.8-0.1h9.5v6.6  c3.3-3.8,8.7-7.7,16.7-7.7c13,0,19.3,7.2,19.3,21.9v22.7h4.7L150.7,302.3L150.7,302.3L150.7,302.3z M178.6,258  c-7.9,0-12.3,5.6-12.3,15.9c0,10.1,5.2,16.5,13.2,16.5c7.9,0,11.9-5.5,11.9-16.4C191.3,262.9,187.3,258,178.6,258 M177,322.8  c-5.8,0-12-1.5-17.3-4.2l-2.4-1.2l4.9-10.8l2.7,1.5c0.1,0,5.6,3.1,11.9,3.1c9.2,0,14.4-4.5,14.4-12.6v-0.4  c-3.4,2.5-7.6,3.9-12.7,3.9c-14.5,0-24.7-11.5-24.7-28c0-16.8,9.5-27.6,24.1-27.6c6.5,0,10.7,2.2,13.7,5.2v-4.1h11.9l-0.1,50.9  C203.5,316.4,189.8,322.8,177,322.8 M434.2,302.6c-6,0-19.9-2.1-19.9-21.1v-22.9h-6.5v-11.1h6.5v-9.1l12.2-7v16.2h12.3v11.2h-12.3  V281c0,6.8,2.8,10.2,8.2,10.2c0.8,0,1.4-0.1,1.5-0.1l3.5-0.8V302l-2.4,0.4C437.5,302.5,436.1,302.6,434.2,302.6 M294.1,258  c-9.2,0-16.4,7.3-16.4,16.6c0,9.7,7.2,17.2,16.4,17.2c9.1,0,16.2-7.6,16.2-17.2C310.3,265.3,303.2,258,294.1,258 M294.1,303.5  c-16.2,0-28.8-12.7-28.8-28.8c0-15.9,12.6-28.3,28.7-28.3c16.2,0,28.8,12.4,28.8,28.3C322.8,290.8,310.2,303.5,294.1,303.5   M228,263.7h12.1c7.6,0,12.2-4.6,12.2-12.1c0-7.4-4.5-11.9-12.1-11.9H228V263.7L228,263.7z M228,302.3h-12.5V228H241  c14.2,0,24,9.7,24,23.5c0,14-9.9,23.8-24,23.8h-13L228,302.3L228,302.3z M11.3,276.7c-15.2,0-22,2.8-22,9c0,3.5,3.3,7,9.4,7  c8.2,0,12.5-6,12.5-16.1L11.3,276.7z M-2.5,303.5c-9.7,0-19.5-6-19.5-17.4c0-19.7,24.5-19.8,32.8-19.8c-0.4-5.8-3.3-8.4-9.4-8.4  c-6.9,0-12.1,4-12.1,4.1l-2.5,2l-6-9.8l1.8-1.5c0.3-0.2,7.4-6.3,19.3-6.3c13.4,0,21.2,7.9,21.2,21.7V291h5.8v11.4h-9.1  c-4.8,0-7-2.3-7.9-5.4C8.7,300.3,4.2,303.5-2.5,303.5 M461,291.6c-0.4-0.2-1.1-0.4-2-0.4h-1.4v3.4h1.5c0.7,0,1.2-0.1,1.6-0.2  c0.7-0.2,1-0.8,1-1.5C461.7,292.3,461.4,291.9,461,291.6 M459.2,290.1c1.2,0,2.1,0.1,2.6,0.4c1,0.4,1.5,1.2,1.5,2.4  c0,0.8-0.3,1.5-0.9,1.9c-0.4,0.2-0.8,0.4-1.4,0.5c0.8,0.1,1.3,0.4,1.7,0.9c0.4,0.5,0.5,1,0.5,1.5v1.4c0,0.2,0.1,0.4,0.1,0.5l0.1,0.1  h-1.6v-0.2l-0.1-0.3v-0.8c0-1.1-0.3-1.8-0.9-2.2c-0.4-0.2-0.9-0.3-1.9-0.3h-1.3v3.7h-1.7v-9.5L459.2,290.1L459.2,290.1L459.2,290.1z   M454.1,289.7c-1.4,1.5-2.2,3.2-2.2,5.3c0,2.1,0.7,3.9,2.2,5.3c1.4,1.5,3.2,2.2,5.3,2.2c2.1,0,3.9-0.7,5.3-2.2s2.2-3.3,2.2-5.3  c0-2.1-0.7-3.9-2.2-5.3c-1.5-1.5-3.2-2.2-5.3-2.2C457.3,287.5,455.6,288.2,454.1,289.7 M465.5,301.1c-1.7,1.7-3.7,2.5-6.2,2.5  c-2.4,0-4.4-0.8-6.2-2.5c-1.7-1.7-2.5-3.7-2.5-6.2c0-2.4,0.8-4.4,2.5-6.1c1.7-1.7,3.7-2.5,6.1-2.5c2.4,0,4.4,0.8,6.2,2.5  c1.7,1.7,2.5,3.7,2.5,6.1C468.1,297.3,467.2,299.4,465.5,301.1" /></svg>